<svg xmlns="http://www.w3.org/2000/svg" viewBox="0 0 512 512"><!--!Font Awesome Free 6.5.1 by @fontawesome - https://fontawesome.com License - https://fontawesome.com/license/free Copyright 2024 Fonticons, Inc.--><path d="M478.2 334.1L336 256l142.2-78.1c11.8-6.5 16-21.4 9.2-33l-19.5-33.7c-6.7-11.7-21.7-15.5-33.2-8.5L296 186.7l3.5-162.2C299.8 11.1 288.9 0 275.5 0h-39c-13.5 0-24.3 11.1-24 24.5L216 186.7 77.3 102.6c-11.5-7-26.5-3.1-33.2 8.5l-19.5 33.7c-6.7 11.7-2.6 26.6 9.2 33L176 256 33.8 334.1c-11.8 6.5-16 21.4-9.2 33l19.5 33.7c6.7 11.7 21.7 15.5 33.2 8.5L216 325.3l-3.5 162.2C212.2 500.9 223.1 512 236.5 512h39c13.5 0 24.3-11.1 24-24.5L296 325.3l138.7 84.1c11.5 7 26.5 3.1 33.2-8.5l19.5-33.7c6.7-11.7 2.6-26.6-9.2-33z"/></svg>